<svg width="101" height="79" viewBox="0 0 101 79" fill="none" xmlns="http://www.w3.org/2000/svg">
<g filter="url(#filter0_d_2_237)">
<g clip-path="url(#clip0_2_237)">
<path d="M55.5859 27.2035C55.1358 25.5533 55.8581 24.2828 56.6755 23.1988C57.8325 21.7059 59.162 20.3208 60.5865 19.1221C67.2933 13.772 75.0411 11.7678 83.5142 12.6442C85.6677 12.8747 87.8237 13.4172 90.2129 13.8797C89.7425 11.6523 87.9513 9.98288 87.3402 7.70995C88.3542 7.77893 88.8118 8.44588 89.206 8.98856C90.8147 11.2214 92.4082 13.5011 93.9395 15.8127C94.6659 16.9298 94.562 17.5705 93.4442 18.1423C91.1312 19.3646 88.6711 19.761 86.126 19.3C86.0322 19.2696 85.9371 19.0832 85.7634 18.8194C86.9331 16.9676 89.3604 18.2724 90.861 16.8389C87.8683 15.0398 84.5905 14.6008 81.3154 14.474C77.8843 14.3486 74.5028 14.5504 71.2214 15.5628C68.0021 16.5435 65.1467 18.1607 62.3559 20.0582C59.5335 21.8936 57.355 24.3007 55.5859 27.2035Z" fill="black"/>
</g>
<path d="M22.4151 40.896C21.6544 40.9005 20.9334 41.064 20.3678 41.624C20.1465 41.8541 20.0125 42.4594 20.0023 42.8244C19.9826 43.4135 20.5191 43.9345 20.9559 44.3323C21.3165 44.6517 22.212 45.2386 22.0656 45.8285C21.1102 46.8824 20.6813 45.7393 19.8958 45.9805C19.7507 46.0216 19.5675 46.1572 19.5265 46.2795C19.3266 46.9765 19.5025 47.178 20.6581 47.5669C21.1477 47.731 21.9252 47.7001 22.3428 47.4765C22.9239 47.1716 23.4309 46.6336 23.5392 45.8708C23.6754 44.8434 22.8597 44.1664 22.3356 43.6608C22.2206 43.5502 21.5346 43.1121 21.6034 42.7252C21.6781 42.2826 22.1368 42.2041 22.8806 42.4934C23.1459 42.648 23.7352 43.2026 24.0371 43.0091C24.1851 42.9402 24.5207 42.6939 24.5169 42.3275C24.5125 41.8344 24.006 41.4292 23.4725 41.1479C23.2058 41.0073 22.4861 40.8894 22.4151 40.896ZM27.7836 41.4602C27.3307 41.483 27.0919 41.6128 26.7314 41.8283C26.1584 42.1904 26.0727 42.3362 25.6997 42.8038C24.992 43.6444 24.6705 45.2295 25.3016 46.3235C25.6615 46.7836 26.4222 47.314 27.125 47.4583C27.9641 47.645 28.6294 47.4756 29.1951 47.1831C30.1843 46.6114 30.9375 45.6066 30.8999 44.4906C31.0315 42.7026 29.8405 41.3104 27.7836 41.4602ZM26.4717 44.9683C26.4247 44.0765 27.2291 42.8519 27.9956 42.7917C28.9892 42.7131 29.7149 43.8452 29.3413 44.9884C29.1502 45.6018 28.4959 46.0679 28.0511 46.1479C27.1072 46.288 26.5114 45.6623 26.4717 44.9683ZM33.8713 38.6934C32.8938 38.8863 32.8288 40.442 32.6099 41.5874C32.295 43.2436 31.9977 44.4652 31.6228 46.1573C31.4829 46.8183 30.8611 48.583 31.3067 48.8973C31.6841 49.1903 32.3252 48.8495 32.5392 48.4215C32.6813 48.1408 32.9361 47.0555 33.0203 46.6561C33.4164 44.6284 33.828 42.8557 34.205 40.7415C34.361 39.9274 34.8767 38.5035 33.8713 38.6934ZM36.2009 43.0488C34.9954 42.8658 34.7758 43.8844 34.6074 44.9507C34.5496 45.3669 34.4347 46.3261 34.4406 46.8054C34.4576 47.8489 35.0872 48.4218 35.82 48.6818C37.8316 49.2311 38.7292 48.326 39.3401 46.7995C39.5671 46.2462 39.7165 45.6284 39.789 45.0729C39.8732 44.4061 39.9682 43.2336 39.5893 42.9545C39.3548 42.775 38.6579 42.8425 38.5027 43.2485C38.343 43.6963 38.3219 44.8343 38.2018 45.4411C38.0517 46.1995 37.5412 47.441 36.9754 47.466C35.3223 47.6582 36.0555 45.3703 36.2825 44.2821C36.3835 43.8563 36.552 43.325 36.2009 43.0488ZM44.302 43.3512C44.2483 42.3884 44.5384 42.0388 44.7135 41.3111C44.89 40.8369 45.0116 40.4837 44.311 40.4523C43.2052 40.3924 43.22 41.323 43.0099 42.1174C42.9205 42.4318 42.7631 43.2599 42.5088 43.4021C42.27 43.5318 41.3107 43.4169 41.011 43.4558C40.7208 43.5379 40.4549 43.7915 40.3853 44.0517C40.2908 44.2811 40.3429 44.7229 40.6192 44.9068C41.0025 45.1442 42.0225 44.815 42.2907 45.2092C42.1502 46.0109 42.0689 46.6499 41.9298 47.1702C41.8895 47.4194 41.6112 48.46 41.5431 48.7062C41.4918 48.926 41.0597 50.0913 41.1198 50.3228C41.1968 50.528 41.6292 50.7001 41.9399 50.6905C42.6463 50.6663 42.8922 49.1295 43.0395 48.6664C43.1105 48.3923 43.3624 47.3349 43.4195 47.0593C43.4964 46.7296 43.7592 45.1665 44.0472 44.9715C44.3212 44.7751 45.4527 44.9925 45.9077 44.8151C46.2162 44.6927 46.4257 44.3065 46.3817 43.9218C46.3113 43.2527 44.6025 43.7066 44.302 43.3512ZM48.5733 41.9842C48.1886 42.0283 47.812 42.3969 47.8099 42.819C47.8056 43.6632 49.3203 43.5831 49.3956 42.7323C49.4344 42.2296 49.0709 41.938 48.5733 41.9842ZM48.1992 44.338C47.5251 44.3235 47.2357 45.0673 47.0636 45.7672C46.8557 46.6744 46.625 47.6637 46.4126 48.6127C46.2859 49.1484 46.1021 49.6921 46.3139 49.9537C46.6115 50.3369 47.504 50.1492 47.7399 49.7798C47.9099 49.5021 47.95 48.718 48.0306 48.2197C48.166 47.333 48.3886 46.554 48.6252 45.7764C48.7468 45.4232 48.9087 45.0883 48.8859 44.9029C48.8544 44.5336 48.3971 44.3307 48.1992 44.338ZM52.163 44.0226C51.7101 44.0454 51.4712 44.1752 51.1107 44.3907C50.5378 44.7527 50.452 44.8986 50.0791 45.3662C49.3714 46.2068 49.0499 47.7919 49.681 48.8858C50.0409 49.346 50.8016 49.8764 51.5044 50.0206C52.3435 50.2074 53.0088 50.038 53.5745 49.7455C54.5637 49.1738 55.3168 48.169 55.2793 47.053C55.4109 45.2649 54.2199 43.8728 52.163 44.0226ZM50.8511 47.5307C50.8041 46.6389 51.6085 45.4143 52.375 45.3541C53.3686 45.2755 54.0943 46.4076 53.7207 47.5508C53.5296 48.1642 52.8752 48.6303 52.4304 48.7103C51.4866 48.8504 50.8908 48.2247 50.8511 47.5307ZM57.8728 47.3959C57.7869 46.4719 58.4572 44.7827 57.3213 44.8745C56.6677 44.9325 56.6056 45.9254 56.4943 46.7161C56.3486 47.7003 56.1201 48.535 55.9202 49.4994C55.7306 50.3663 55.4684 51.2537 56.4928 51.1503C56.8761 51.1202 57.4628 49.9571 57.7434 49.5643C58.2343 48.912 58.1354 48.9157 58.9281 48.0699C59.2476 47.7094 59.5816 47.2095 60.0191 47.1992C60.0368 47.8345 59.9262 48.2171 59.7724 48.8766C59.6033 49.5486 59.4561 50.2792 59.4262 50.9659C59.6937 51.5008 60.6639 51.3775 60.8947 50.9231C60.9665 50.7758 60.9459 50.4358 60.9722 50.1852C61.093 49.1703 61.6079 47.6196 61.6253 46.6501C61.6304 46.2002 61.4618 45.6616 61.3049 45.5466C60.8 45.1275 60.2174 45.4463 59.8276 45.6728C59.3162 45.9851 58.8795 46.3897 58.5249 46.8169C58.3469 47.0375 58.1483 47.1856 57.8728 47.3959ZM68.7941 49.4729C69.2352 49.294 69.7511 49.475 70.2905 49.4331C70.802 49.3883 71.0019 48.4239 70.3973 48.1492C69.723 47.8672 69.4615 48.079 69.035 47.8512C68.8502 47.4658 69.1958 45.7847 69.3233 45.3758C69.5342 44.7082 69.8792 43.4353 70.5336 43.504C70.9234 43.545 70.9667 44.0704 71.0628 44.3621C71.1588 44.6537 71.2402 45.0846 71.5033 45.1263C71.8133 45.2574 72.2984 45.1958 72.4522 44.8037C72.5914 44.5509 72.6001 43.9324 72.3787 43.3601C72.0803 42.5827 71.5079 42.0017 70.5253 42.1095C69.5148 42.2145 68.9235 42.8843 68.4019 43.829C67.9338 44.6667 67.7434 45.4068 67.5193 46.4672C67.4468 46.7552 67.4674 47.3627 67.3246 47.5166C67.1495 47.7093 67.3114 47.6419 66.9201 47.6148C66.5566 47.5907 66.1309 47.7571 66.0401 48.0854C65.9822 48.2342 65.906 48.4233 66.079 48.6526C66.5151 49.1911 66.5026 48.9083 67.1673 49.1471C67.2773 49.9751 66.8789 51.355 66.9948 52.1274C67.0718 52.6 68.0838 52.7486 68.3373 52.2122C68.6332 51.5394 68.5736 49.8298 68.7941 49.4729ZM74.5028 46.3706C74.0499 46.3934 73.8111 46.5232 73.4506 46.7387C72.8776 47.1008 72.7919 47.2466 72.419 47.7142C71.7112 48.5548 71.3898 50.1399 72.0209 51.2338C72.3807 51.694 73.1415 52.2244 73.8442 52.3687C74.6833 52.5554 75.3487 52.386 75.9143 52.0935C76.9035 51.5218 77.6567 50.517 77.6191 49.401C77.7507 47.6129 76.5597 46.2208 74.5028 46.3706ZM73.1909 49.8787C73.1439 48.9869 73.9483 47.7623 74.7148 47.7021C75.7085 47.6235 76.4341 48.7556 76.0606 49.8988C75.8694 50.5122 75.2151 50.9783 74.7703 51.0583C73.8265 51.1984 73.2306 50.5727 73.1909 49.8787ZM80.4438 47.0091C80.3331 46.8567 80.1191 46.7498 79.9088 46.7417C79.154 46.6906 79.1292 47.1947 78.8956 48.2119C78.6517 49.3265 78.4124 51.2018 78.1949 52.3332C78.1224 52.6212 78.0331 52.9356 78.0712 53.1085C78.1233 53.2829 78.3981 53.4808 78.6055 53.5166C79.1316 53.6001 79.3991 53.6 79.5881 53.1413C79.8166 52.5741 79.9681 50.9993 80.0786 50.3493C80.1035 50.1126 81.1176 49.5716 81.706 49.4645C81.9515 49.4059 82.5663 49.3156 82.866 49.2767C83.1518 49.2364 83.7006 48.9703 83.6756 48.4046C83.6477 48.1342 83.3326 47.9181 83.0431 47.8595C82.5492 47.7372 81.9549 47.9 81.5644 47.9997C81.2017 48.1023 80.6814 48.4981 80.3451 48.3502C80.4212 47.8936 80.5472 47.4986 80.4438 47.0091ZM9.1917 61.2835C9.83146 61.4915 10.252 61.2401 10.397 60.6641C10.6643 59.5941 10.7293 58.0384 10.9189 56.6365C11.0953 55.6275 11.348 54.4293 11.5442 53.366C11.7126 52.5672 12.1799 51.0678 11.4815 50.8818C11.2661 50.7888 10.7978 50.824 10.6813 50.9948C10.2864 51.6712 10.3989 53.682 9.76727 54.0661C8.87618 53.9724 8.08477 54.0019 7.33517 54.3032C6.65665 54.5979 6.15695 55.0662 5.77087 55.6591C5.4551 56.1186 5.21707 56.91 5.3359 57.6545C5.45766 58.3712 6.12388 59.131 6.70139 59.5295C7.33312 59.9479 8.07545 59.9837 8.82367 60.2312C8.97394 60.5426 8.88756 61.0966 9.1917 61.2835ZM9.36107 57.2611C9.27394 57.6884 9.1942 58.5809 9.02278 58.8726C8.35228 58.957 7.38417 58.3907 7.03601 57.8192C6.46135 56.8578 7.287 55.565 8.32757 55.5759C8.97389 55.5875 9.32562 55.4555 9.50666 55.742C9.57339 56.0447 9.44967 56.82 9.36107 57.2611ZM13.9469 52.422C13.5622 52.466 13.1856 52.8347 13.1834 53.2567C13.1792 54.1009 14.6939 54.0208 14.7692 53.17C14.808 52.6673 14.4444 52.3757 13.9469 52.422ZM13.5728 54.7758C12.8986 54.7612 12.6093 55.505 12.4372 56.2049C12.2292 57.1121 11.9985 58.1014 11.7862 59.0504C11.6595 59.5861 11.4757 60.1299 11.6875 60.3915C11.985 60.7747 12.8776 60.5869 13.1135 60.2176C13.2834 59.9398 13.3236 59.1557 13.4041 58.6574C13.5396 57.7707 13.7622 56.9917 13.9988 56.2142C14.1204 55.8609 14.2823 55.526 14.2595 55.3406C14.2279 54.9713 13.7706 54.7684 13.5728 54.7758ZM17.634 54.4706C16.8734 54.4751 16.1523 54.6386 15.5867 55.1986C15.3654 55.4287 15.2314 56.034 15.2212 56.399C15.2015 56.9881 15.738 57.5091 16.1748 57.9069C16.5354 58.2263 17.431 58.8132 17.2845 59.4031C16.3291 60.457 15.9002 59.3139 15.1147 59.5551C14.9696 59.5962 14.7865 59.7318 14.7454 59.8542C14.5455 60.5511 14.7214 60.7526 15.8771 61.1415C16.3666 61.3056 17.1441 61.2747 17.5618 61.0511C18.1428 60.7462 18.6498 60.2082 18.7582 59.4454C18.8943 58.418 18.0786 57.741 17.5546 57.2354C17.4395 57.1248 16.7535 56.6867 16.8224 56.2998C16.897 55.8572 17.3557 55.7787 18.0996 56.068C18.3649 56.2226 18.9541 56.7772 19.256 56.5837C19.404 56.5148 19.7396 56.2685 19.7359 55.9021C19.7314 55.409 19.225 55.0038 18.6915 54.7225C18.4247 54.5819 17.7051 54.464 17.634 54.4706ZM25.2465 60.6059C25.0097 59.7786 24.3487 60.1737 23.5434 60.2017C22.4552 60.2422 21.8484 59.5871 21.6782 58.795C21.5206 58.0183 22.4877 57.1205 23.5033 57.1005C23.8837 57.0983 24.245 57.277 24.7271 57.2432C25.1089 57.227 25.5053 56.8042 25.4371 56.248C25.363 55.7475 23.9457 55.5704 23.4943 55.5792C22.2837 55.5787 21.2374 56.1585 20.6096 57.1765C20.3114 57.7364 20.0661 58.5974 20.1937 59.2584C20.5463 60.5905 21.4588 61.4185 22.89 61.597C24.1819 61.761 25.4532 61.3174 25.2465 60.6059ZM29.0532 55.6708C28.6003 55.6936 28.3614 55.8233 28.0009 56.0388C27.428 56.4009 27.3422 56.5468 26.9693 57.0143C26.2616 57.855 25.9401 59.4401 26.5712 60.534C26.9311 60.9942 27.6918 61.5246 28.3946 61.6688C29.2337 61.8556 29.899 61.6862 30.4647 61.3937C31.4539 60.822 32.207 59.8172 32.1695 58.7011C32.3011 56.9131 31.1101 55.521 29.0532 55.6708ZM27.7413 59.1789C27.6943 58.2871 28.4987 57.0625 29.2652 57.0023C30.2588 56.9237 30.9845 58.0557 30.6109 59.199C30.4198 59.8123 29.7654 60.2785 29.3207 60.3584C28.3768 60.4986 27.781 59.8728 27.7413 59.1789ZM34.9157 60.8057C34.8914 60.0993 34.7703 58.9745 34.675 58.2747C34.628 57.9178 34.5678 57.1513 34.4087 56.9235C34.1266 56.5278 33.4084 56.6635 33.1535 56.9464C33.089 57.0241 32.9176 57.3158 33.0144 57.7342C33.0218 58.467 33.5776 60.4117 33.7661 61.6985C33.8409 62.3257 33.8703 62.8497 34.2917 62.9925C34.9798 63.276 35.5975 62.3555 35.9425 61.885C37.0803 60.3012 37.5382 59.561 38.1148 58.7629C38.4291 58.3173 38.8694 58.0117 38.7264 57.3632C38.6289 56.818 38.0712 56.6327 37.6367 56.8827C37.1282 57.1671 36.9033 57.8332 36.5187 58.4122C35.9846 59.074 35.4711 60.0758 34.9157 60.8057ZM40.4542 61.5427C40.8001 61.4664 41.3885 61.3594 41.8333 61.2794C42.4928 61.1657 42.8335 61.0045 43.4835 60.8475C43.8726 60.7617 44.1869 60.3162 44.1986 59.9373C44.2249 59.6867 44.0885 59.1093 44.0086 58.9319C43.5577 57.4628 42.4584 56.939 41.0442 57.269C40.4697 57.3775 39.7861 57.8547 39.3861 58.4461C38.8761 59.0119 38.6308 59.873 38.7695 61.0982C39.0254 62.2794 39.345 62.7212 40.4245 63.2992C41.0951 63.7498 42.4786 63.7122 43.2428 63.2717C43.5 63.1016 43.615 62.6773 43.3423 62.3249C42.8469 61.949 42.378 62.6599 41.4656 62.3669C40.8662 62.1772 40.5173 62.0139 40.4542 61.5427ZM40.7308 58.9112C41.6826 58.2933 42.5122 58.4368 42.763 59.533C42.6685 59.7624 42.2398 59.9567 41.9123 59.9926C41.4147 60.0389 40.5361 60.2281 40.2899 60.16C40.2048 59.8976 40.3381 59.1655 40.7308 58.9112ZM47.0683 57.5783C46.9576 57.4259 46.7436 57.319 46.5333 57.311C45.7785 57.2598 45.7537 57.7639 45.5201 58.7811C45.2762 59.8957 45.0369 61.771 44.8194 62.9024C44.7469 63.1904 44.6576 63.5048 44.6957 63.6778C44.7478 63.8522 45.0226 64.05 45.23 64.0858C45.7561 64.1693 46.0236 64.1693 46.2126 63.7105C46.4411 63.1433 46.5926 61.5685 46.7031 60.9185C46.728 60.6818 47.7421 60.1408 48.3305 60.0337C48.576 59.9751 49.1908 59.8848 49.4905 59.846C49.7763 59.8056 50.3251 59.5395 50.3001 58.9738C50.2722 58.7034 49.9571 58.4873 49.6676 58.4287C49.1737 58.3064 48.5794 58.4692 48.1889 58.5689C47.8261 58.6716 47.3059 59.0673 46.9695 58.9194C47.0457 58.4628 47.1717 58.0678 47.0683 57.5783ZM55.7486 60.1095C56.2593 60.2055 56.91 59.6404 57.9718 59.5831C58.2876 59.6585 58.6849 60.4322 58.2871 60.8691C58.035 61.1241 56.8464 60.9147 56.1422 61.0519C55.7392 61.1362 55.2211 61.3774 55.0057 61.5518C54.6672 61.8259 54.254 62.2752 54.3296 63.0292C54.3377 63.3538 54.5854 63.6755 54.8126 63.9246C55.3565 64.6434 55.9567 64.9599 56.7445 65.3665C56.971 65.4888 57.5316 65.6463 57.7727 65.6294C58.1112 65.6227 58.5259 65.1595 58.6526 64.8913C58.9544 64.1629 59.1742 63.4117 59.4122 62.6203C59.5982 61.9219 59.9124 60.9413 59.8529 60.0342C59.8176 59.2984 59.4145 58.5804 58.9323 58.3467C58.0756 58.0596 57.3626 58.2802 56.4386 58.6336C55.9726 58.7817 55.4157 58.9906 55.4268 59.5549C55.4422 59.8099 55.4943 59.9843 55.7486 60.1095ZM57.0599 62.2322C57.3259 62.2461 57.8623 62.2321 58.0272 62.4043C57.976 62.8916 57.8317 63.8619 57.3884 63.9279C56.7303 63.7602 55.7307 63.3595 55.8017 62.5505C56.0398 62.294 56.5278 62.2045 57.0599 62.2322ZM68.2513 59.9455C68.1977 58.9827 68.4878 58.6331 68.6628 57.9054C68.8394 57.4312 68.9609 57.078 68.2604 57.0466C67.1546 56.9867 67.1694 57.9173 66.9592 58.7117C66.8699 59.0261 66.7124 59.8542 66.4582 59.9964C66.2193 60.1261 65.2601 60.0112 64.9604 60.0501C64.6702 60.1322 64.4042 60.3858 64.3346 60.646C64.2402 60.8754 64.2922 61.3172 64.5685 61.5011C64.9518 61.7385 65.9718 61.4093 66.2401 61.8035C66.0995 62.6052 66.0183 63.2442 65.8791 63.7645C65.8389 64.0137 65.5606 65.0543 65.4925 65.3005C65.4412 65.5203 65.009 66.6856 65.0692 66.9171C65.1461 67.1223 65.5785 67.2944 65.8892 67.2848C66.5956 67.2605 66.8416 65.7238 66.9888 65.2607C67.0599 64.9866 67.3118 63.9292 67.3689 63.6536C67.4458 63.3238 67.7086 61.7608 67.9966 61.5658C68.2706 61.3694 69.4021 61.5868 69.8571 61.4094C70.1656 61.287 70.3751 60.9008 70.3311 60.5161C70.2606 59.847 68.5518 60.3009 68.2513 59.9455ZM72.7801 60.2808C72.6695 60.1284 72.4555 60.0214 72.2452 60.0134C71.4904 59.9622 71.4655 60.4664 71.2319 61.4835C70.9881 62.5981 70.7488 64.4734 70.5313 65.6049C70.4588 65.8929 70.3695 66.2073 70.4076 66.3802C70.4596 66.5546 70.7345 66.7524 70.9419 66.7883C71.468 66.8717 71.7355 66.8717 71.9245 66.4129C72.153 65.8457 72.3045 64.2709 72.415 63.6209C72.4399 63.3842 73.454 62.8432 74.0424 62.7362C74.2879 62.6775 74.9027 62.5873 75.2024 62.5484C75.4882 62.508 76.037 62.2419 76.012 61.6762C75.9841 61.4058 75.669 61.1897 75.3795 61.1311C74.8856 61.0088 74.2913 61.1716 73.9007 61.2713C73.538 61.374 73.0178 61.7698 72.6814 61.6218C72.7576 61.1653 72.8835 60.7703 72.7801 60.2808ZM77.7644 65.4642C78.1102 65.3879 78.6986 65.2808 79.1434 65.2009C79.8029 65.0872 80.1437 64.9259 80.7936 64.769C81.1827 64.6832 81.497 64.2376 81.5087 63.8588C81.535 63.6081 81.3986 63.0307 81.3187 62.8534C80.8678 61.3842 79.7686 60.8604 78.3543 61.1904C77.7798 61.299 77.0962 61.7761 76.6962 62.3675C76.1863 62.9333 75.9409 63.7944 76.0796 65.0196C76.3355 66.2008 76.6551 66.6427 77.7346 67.2207C78.4052 67.6712 79.7887 67.6336 80.5529 67.1931C80.8101 67.0231 80.9251 66.5988 80.6524 66.2463C80.157 65.8705 79.6881 66.5814 78.7757 66.2884C78.1763 66.0987 77.8275 65.9353 77.7644 65.4642ZM78.0409 62.8327C78.9927 62.2148 79.8223 62.3583 80.0731 63.4545C79.9786 63.6839 79.5499 63.8781 79.2224 63.9141C78.7248 63.9603 77.8462 64.1495 77.6 64.0814C77.515 63.8191 77.6482 63.087 78.0409 62.8327ZM84.1472 64.2346C84.0614 63.3106 84.7316 61.6214 83.5958 61.7132C82.9421 61.7712 82.88 62.7641 82.7687 63.5548C82.6231 64.539 82.3946 65.3737 82.1947 66.338C82.005 67.205 81.7428 68.0924 82.7672 67.9889C83.1505 67.9588 83.7373 66.7958 84.0179 66.403C84.5087 65.7507 84.4098 65.7544 85.2026 64.9086C85.522 64.548 85.8561 64.0482 86.2936 64.0379C86.3112 64.6732 86.2007 65.0558 86.0469 65.7153C85.8777 66.3873 85.7305 67.1179 85.7006 67.8045C85.9681 68.3394 86.9383 68.2162 87.1691 67.7618C87.2409 67.6145 87.2203 67.2745 87.2467 67.0239C87.3674 66.0089 87.8823 64.4583 87.8998 63.4888C87.9048 63.0388 87.7362 62.5003 87.5794 62.3852C87.0744 61.9662 86.4919 62.285 86.1021 62.5115C85.5906 62.8238 85.1539 63.2283 84.7993 63.6556C84.6213 63.8762 84.4227 64.0243 84.1472 64.2346ZM92.378 70.0267C93.0178 70.2347 93.4384 69.9833 93.5834 69.4073C93.8507 68.3374 93.9156 66.7816 94.1052 65.3798C94.2817 64.3707 94.5343 63.1725 94.7305 62.1092C94.8989 61.3105 95.3662 59.8111 94.6678 59.6251C94.4524 59.532 93.9841 59.5673 93.8676 59.738C93.4728 60.4145 93.5852 62.4252 92.9536 62.8093C92.0625 62.7157 91.2711 62.7451 90.5215 63.0464C89.843 63.3411 89.3433 63.8094 88.9572 64.4023C88.6414 64.8618 88.4034 65.6533 88.5222 66.3978C88.644 67.1144 89.3102 67.8742 89.8877 68.2728C90.5194 68.6911 91.2618 68.7269 92.01 68.9745C92.1603 69.2859 92.0739 69.8399 92.378 70.0267ZM92.5474 66.0044C92.4603 66.4316 92.3805 67.3242 92.2091 67.6158C91.5386 67.7002 90.5705 67.1339 90.2223 66.5624C89.6477 65.6011 90.4733 64.3083 91.5139 64.3191C92.1602 64.3307 92.5119 64.1988 92.693 64.4853C92.7597 64.7879 92.636 65.5632 92.5474 66.0044Z" fill="black"/>
</g>
<defs>
<filter id="filter0_d_2_237" x="0.791199" y="0" width="100.166" height="78.365" filterUnits="userSpaceOnUse" color-interpolation-filters="sRGB">
<feFlood flood-opacity="0" result="BackgroundImageFix"/>
<feColorMatrix in="SourceAlpha" type="matrix" values="0 0 0 0 0 0 0 0 0 0 0 0 0 0 0 0 0 0 127 0" result="hardAlpha"/>
<feOffset dy="4"/>
<feGaussianBlur stdDeviation="2"/>
<feComposite in2="hardAlpha" operator="out"/>
<feColorMatrix type="matrix" values="0 0 0 0 0 0 0 0 0 0 0 0 0 0 0 0 0 0 0.25 0"/>
<feBlend mode="normal" in2="BackgroundImageFix" result="effect1_dropShadow_2_237"/>
<feBlend mode="normal" in="SourceGraphic" in2="effect1_dropShadow_2_237" result="shape"/>
</filter>
<clipPath id="clip0_2_237">
<rect width="28.3944" height="34.4457" fill="white" transform="translate(54.9991 27.0134) rotate(-72.0565)"/>
</clipPath>
</defs>
</svg>
